PathFileType	4	(X/Y/Z)	c:/Users/goper/Files/vsCode/490R/osim_files/C12/C12_SSWS_06.trc
DataRate	CameraRate	NumFrames	NumMarkers	Units                	OrigDataRate	OrigDataStartFrame	OrigNumFrames
120.00	120.00	4	36	mm	120.0	771	1233
                Frame#	Time	LPSIS			LASIS			LTH1			LTH2			LTH3			LTH4			LLFE			LMFE			LSH1			LSH2			LSH3			LSH4			LLMAL			LMMAL			LCAL			LMTP5			LTOE			LMTP1			RPSIS			RASIS			RTH1			RTH2			RTH3			RTH4			RLFE			RMFE			RSH1			RSH2			RSH3			RSH4			RLMAL			RMMAL			RCAL			RMTP1			RTOE			RMTP5		
		X1	Y1	Z1	X2	Y2	Z2	X3	Y3	Z3	X4	Y4	Z4	X5	Y5	Z5	X6	Y6	Z6	X7	Y7	Z7	X8	Y8	Z8	X9	Y9	Z9	X10	Y10	Z10	X11	Y11	Z11	X12	Y12	Z12	X13	Y13	Z13	X14	Y14	Z14	X15	Y15	Z15	X16	Y16	Z16	X17	Y17	Z17	X18	Y18	Z18	X19	Y19	Z19	X20	Y20	Z20	X21	Y21	Z21	X22	Y22	Z22	X23	Y23	Z23	X24	Y24	Z24	X25	Y25	Z25	X26	Y26	Z26	X27	Y27	Z27	X28	Y28	Z28	X29	Y29	Z29	X30	Y30	Z30	X31	Y31	Z31	X32	Y32	Z32	X33	Y33	Z33	X34	Y34	Z34	X35	Y35	Z35	X36	Y36	Z36

771	6.41667	-1575.97913	1054.72620	329.76056	-1752.88965	1015.08484	385.87540	-1728.51099	733.53284	434.55472	-1745.00513	691.06860	426.90039	-1786.62891	753.09241	433.14850	-1796.36853	709.76617	427.56168	-1830.24622	537.04346	373.60898	-1821.95850	535.58582	249.12064	-1782.11353	434.54034	392.14169	-1787.83142	386.69366	396.62985	-1842.12012	434.55670	380.40598	-1838.01514	387.35321	384.39282	-1807.78442	97.55299	340.76968	-1816.97217	103.91855	262.39743	-1742.97009	71.99212	304.12210	-1941.17725	43.03498	364.79111	-1990.47046	75.79916	295.30225	-1959.93726	44.54908	254.22546	-1568.63879	1050.04431	217.16679	-1744.22729	1009.68896	132.17654	-1619.92151	728.29041	71.73425	-1621.40369	683.18195	76.61098	-1683.20984	722.87952	72.75198	-1675.47302	675.90399	75.31108	-1599.15076	505.74387	94.18996	-1623.86353	489.29568	225.97231	-1490.44666	483.62793	83.05623	-1458.95337	454.43481	76.89885	-1527.71863	432.91602	78.31528	-1490.08557	413.27658	71.92528	-1255.04504	249.56447	120.00104	-1280.35620	237.50537	200.06746	-1208.13269	304.58163	164.54939	-1248.05054	98.09176	214.67488	-1276.89465	63.83404	182.32487	-1229.38708	81.99060	112.02803
772	6.42500	-1586.73242	1055.80737	330.31790	-1763.83228	1016.82739	387.55310	-1735.53015	733.92236	433.20096	-1752.25952	692.23010	427.75974	-1794.56274	753.30823	434.50809	-1803.54822	709.81750	428.91531	-1834.93396	536.58789	374.86118	-1827.50415	536.03436	250.10944	-1785.19751	434.84796	392.36816	-1790.43958	386.89053	396.85602	-1845.51074	434.21542	381.53802	-1840.86584	387.08652	385.46359	-1807.94189	97.51256	340.78622	-1817.29504	104.07245	262.60986	-1741.80322	72.96820	303.75510	-1941.42847	43.03963	364.97913	-1990.74023	75.47990	295.28162	-1960.38452	44.43516	254.21964	-1578.92114	1051.60632	217.32159	-1754.97510	1011.20764	133.71544	-1635.79675	728.97375	71.52721	-1638.50916	683.77289	75.98395	-1699.29285	724.83099	72.07474	-1692.85388	677.68109	74.08325	-1620.38733	506.06802	93.15697	-1646.61316	489.96716	225.37273	-1513.15369	485.13611	82.49515	-1481.18152	456.43338	76.18404	-1550.02209	433.76294	77.16000	-1511.92004	414.72849	71.17057	-1273.65674	254.93439	119.81071	-1299.75940	241.97316	199.99637	-1229.68042	311.39093	166.10942	-1262.43787	102.54957	214.03648	-1287.97021	64.53557	179.23682	-1239.41931	88.02486	112.13860
773	6.43333	-1596.51978	1058.21643	330.18137	-1774.63794	1018.48969	389.08786	-1741.88269	734.98724	433.86172	-1759.31274	692.85010	428.71484	-1801.97620	753.44049	435.79816	-1810.29504	710.07135	430.36566	-1839.36182	536.27338	375.89850	-1832.60437	536.43805	251.12628	-1787.78210	434.83420	392.57443	-1792.98010	386.75552	396.87341	-1848.25977	433.77213	382.69641	-1843.19128	386.62662	386.44943	-1808.21033	97.60173	340.80927	-1817.67334	104.21159	262.68414	-1742.04675	73.34408	303.76245	-1941.56189	42.88304	365.04587	-1991.03931	75.00018	295.36053	-1960.52441	44.27009	254.19331	-1588.00244	1052.74280	216.36847	-1765.50488	1012.74487	135.15154	-1651.35217	730.04260	71.44556	-1655.12976	684.89050	75.45967	-1714.92920	727.08685	71.43150	-1709.47974	679.96259	73.43357	-1641.17468	507.36829	91.56161	-1668.55750	491.42184	224.75850	-1536.34167	486.57422	82.12793	-1504.66858	457.50806	76.65764	-1571.88843	435.05875	76.41058	-1533.99890	416.27475	70.22366	-1292.13940	260.15988	119.75710	-1319.86975	245.67998	199.56230	-1251.32141	317.62854	168.12015	-1279.05188	107.43671	213.28023	-1301.55151	70.36800	177.43332	-1252.47913	94.89101	111.81146
774	6.44167	-1606.86633	1059.12781	330.90915	-1785.12732	1020.11359	390.49478	-1748.61047	736.03021	434.57672	-1765.09937	693.44165	429.38525	-1809.17529	753.51312	437.01566	-1816.77148	709.96735	431.60321	-1843.48193	535.88153	376.72519	-1837.10352	536.62628	252.00760	-1789.71948	435.11874	393.10223	-1794.43457	386.91431	397.47748	-1850.71838	433.31387	383.77988	-1845.16626	386.14828	387.32498	-1808.44531	97.71501	340.80426	-1818.00488	104.36675	262.76001	-1742.22754	73.66399	303.75690	-1941.59473	42.73073	365.14789	-1991.28821	74.64856	295.41580	-1960.49146	43.57037	254.87132	-1597.67688	1053.66211	216.90413	-1777.95386	1015.23193	135.68936	-1666.73621	731.29138	71.50208	-1671.41113	686.29175	75.03787	-1730.20691	729.69366	70.86127	-1725.61218	682.50964	72.42315	-1663.06104	508.56882	90.72212	-1690.11865	493.15018	224.13782	-1559.12952	488.10461	81.49064	-1527.03027	459.56580	75.86234	-1594.64282	436.65836	76.10371	-1556.40564	418.10803	69.38907	-1311.55591	265.55341	120.48737	-1340.46948	249.79860	199.33452	-1272.49426	323.26077	169.89038	-1298.53003	112.22337	212.35544	-1319.26123	75.55165	175.00539	-1268.62659	101.28477	111.60329
